<svg xmlns="http://www.w3.org/2000/svg" xmlns:xlink="http://www.w3.org/1999/xlink" version="1.1" id="Layer_1" x="0px" y="0px" width="100px" height="100px" viewBox="5.0 -10.0 100.0 135.0" enable-background="new 0 0 100 100" xml:space="preserve">
<g>
	<path d="M18.244,42.601l0.114-0.106c0.135-0.566,0.4-2.446-1.441-4.222c-1.833-1.768-4.001-1.827-4.655-1.801l-0.022,0.022   c-0.01,0.646,0.096,2.773,1.858,4.597C15.866,42.921,17.684,42.719,18.244,42.601z"/>
	<path d="M55.064,64.671c1.27-1.313,1.345-2.848,1.34-3.313l-0.018-0.016c-0.472-0.02-2.035,0.023-3.355,1.297   c-0.24,0.231-0.43,0.467-0.579,0.696v-4.961c1.123,0.978,2.59,1.571,4.192,1.571h17.129c2.256,0,4.238-1.174,5.379-2.94h3.738   c3.526,0,6.396-2.869,6.396-6.396v-5.926c0.595,0.027,1.609-0.115,2.602-1.144c1.278-1.322,1.355-2.866,1.348-3.335l-0.016-0.017   c-0.474-0.019-2.048,0.024-3.377,1.307c-0.229,0.221-0.408,0.443-0.557,0.663v-0.371c0-0.609-0.494-1.103-1.104-1.103   c-0.608,0-1.104,0.493-1.104,1.103v4.57c-0.029-0.03-0.057-0.06-0.086-0.09c-1.331-1.282-2.904-1.325-3.377-1.307L83.6,44.978   c-0.006,0.469,0.07,2.012,1.35,3.334c0.766,0.792,1.542,1.058,2.132,1.127v1.17c0,2.312-1.88,4.189-4.188,4.189h-2.846   c0.064-0.32,0.104-0.652,0.117-0.99c0.081-0.479,0.111-1.574-0.969-2.617C78,50.039,76.583,50,76.157,50.016l-0.015,0.016   c-0.006,0.421,0.063,1.809,1.213,2.998c0.203,0.212,0.408,0.379,0.609,0.516c0,0.002-0.001,0.003-0.001,0.005   c0,2.311-1.88,4.19-4.19,4.19H69.74c0.978-1.123,1.57-2.589,1.57-4.19v-8.397c0.772,0.08,2.306-0.011,3.803-1.562   c1.764-1.823,1.869-3.95,1.859-4.597l-0.022-0.022c-0.653-0.026-2.822,0.033-4.653,1.801c-0.439,0.424-0.757,0.854-0.986,1.271   v-6.356c0-0.054-0.004-0.107-0.012-0.161c-0.001-0.004-0.008-0.057-0.017-0.148c0.417,0.075,1.55,0.147,2.653-0.996   c1.149-1.189,1.219-2.578,1.213-2.999l-0.016-0.016c-0.426-0.017-1.842,0.022-3.037,1.175c-0.363,0.351-0.6,0.707-0.752,1.044   c0.127-0.832,0.422-1.783,1.07-2.535c0.852-0.984,2.197-1.484,4.006-1.484c0.607,0,1.104-0.493,1.104-1.103   c0-0.61-0.494-1.103-1.104-1.103c-2.479,0-4.387,0.757-5.675,2.248c-1.992,2.307-1.712,5.554-1.642,6.148v2.971   c-0.232-0.526-0.601-1.083-1.168-1.632c-1.83-1.767-4-1.826-4.653-1.8L63.26,35.32c-0.01,0.646,0.096,2.774,1.858,4.598   c1.627,1.683,3.292,1.646,3.985,1.538v6.071c-0.27-0.434-0.619-0.875-1.07-1.312c-2.276-2.196-4.973-2.271-5.783-2.238   l-0.029,0.029c-0.012,0.802,0.12,3.446,2.311,5.712c1.767,1.827,3.57,2.023,4.572,1.954v1.881c0,2.312-1.879,4.19-4.188,4.19   h-8.271c-2.226,0-4.045-1.744-4.18-3.937l0.051,0.047c0.402,0.084,1.713,0.229,2.989-1.09c1.271-1.313,1.345-2.848,1.341-3.313   l-0.019-0.016c-0.472-0.02-2.035,0.023-3.354,1.298c-0.604,0.582-0.893,1.18-1.02,1.697v-3.79c0.125,0.049,0.261,0.079,0.404,0.079   c3.526,0,6.396-2.87,6.396-6.396v-5.634c0.563,0.055,1.653-0.025,2.72-1.128c1.271-1.314,1.346-2.849,1.34-3.314l-0.017-0.017   c-0.472-0.019-2.036,0.025-3.354,1.299c-0.305,0.292-0.523,0.588-0.688,0.876V24.67c0.584,0.119,2.375,0.292,4.122-1.515   c1.762-1.823,1.867-3.95,1.857-4.597l-0.021-0.022c-0.652-0.026-2.824,0.033-4.654,1.801c-0.693,0.67-1.089,1.354-1.304,1.978   v-6.053c0-0.609-0.494-1.104-1.103-1.104c-0.426,0-0.791,0.243-0.976,0.595c-0.2-0.922-0.694-2.006-1.788-3.062   c-2.275-2.197-4.973-2.271-5.785-2.238l-0.028,0.028c-0.011,0.803,0.119,3.447,2.31,5.712c2.198,2.274,4.457,2.024,5.152,1.877   l0.012-0.011v8.174c-0.233-0.526-0.601-1.084-1.169-1.634c-1.832-1.767-4-1.826-4.654-1.801l-0.021,0.023   c-0.01,0.646,0.097,2.774,1.857,4.597c1.627,1.684,3.295,1.647,3.987,1.539v13.365c0,2.311-1.88,4.19-4.19,4.19   c-0.145,0-0.279,0.029-0.404,0.079v-1.862c0-0.006-0.002-0.013-0.002-0.02v-3.271l0.011,0.011c0.363,0.077,1.542,0.208,2.688-0.979   c1.143-1.182,1.211-2.561,1.205-2.979l-0.016-0.015c-0.424-0.017-1.831,0.021-3.018,1.167c-0.482,0.468-0.74,0.944-0.872,1.372   v-6.701c0-3.526-2.87-6.396-6.396-6.396h-1.172c-0.024-0.604-0.243-1.447-1.087-2.262c-1.298-1.253-2.835-1.295-3.3-1.276   l-0.016,0.017c-0.006,0.458,0.068,1.966,1.317,3.258c0.093,0.097,0.187,0.183,0.279,0.264h-3.691   c-0.181-0.95-0.669-2.093-1.819-3.203c-2.275-2.195-4.971-2.27-5.782-2.236l-0.03,0.028c-0.011,0.802,0.12,3.446,2.311,5.711   c2.057,2.128,4.165,2.046,4.998,1.906h7.992c2.311,0,4.19,1.879,4.19,4.189v3.153c-0.268-0.774-0.758-1.626-1.622-2.459   c-2.276-2.196-4.971-2.27-5.783-2.237l-0.028,0.028c-0.012,0.803,0.12,3.446,2.31,5.713c2.169,2.243,4.397,2.029,5.124,1.882V50.01   c0,0.004-0.001,0.008-0.001,0.012v3.474c-0.234-0.502-0.589-1.029-1.128-1.551c-1.831-1.766-4-1.825-4.653-1.799l-0.023,0.022   c-0.01,0.646,0.096,2.773,1.857,4.598c1.599,1.651,3.233,1.647,3.947,1.545v2.532c0,2.312-1.881,4.19-4.19,4.19H42.17   c0.977-1.123,1.57-2.59,1.57-4.19V45.084c0.515,0.068,1.639,0.05,2.736-1.086c1.233-1.276,1.308-2.767,1.301-3.219l-0.017-0.017   c-0.456-0.018-1.977,0.023-3.259,1.262c-0.356,0.345-0.598,0.693-0.762,1.028v-2.074c0-3.41-2.683-6.205-6.049-6.387   c-0.165-0.359-0.419-0.739-0.807-1.113c-1.298-1.253-2.835-1.296-3.298-1.276l-0.017,0.016c-0.007,0.458,0.067,1.966,1.317,3.259   c0.606,0.628,1.221,0.916,1.738,1.04c0.194,0.166,0.442,0.271,0.719,0.271c2.311,0,4.189,1.88,4.189,4.19v6.123   c-0.233-0.48-0.579-0.983-1.093-1.479c-1.831-1.768-4-1.827-4.654-1.801l-0.023,0.023c-0.009,0.646,0.096,2.773,1.858,4.597   c1.573,1.626,3.181,1.648,3.912,1.55v6.286c-0.245-0.694-0.689-1.457-1.462-2.202c-2.069-1.998-4.522-2.065-5.261-2.036   l-0.027,0.025c-0.01,0.73,0.11,3.136,2.101,5.196c1.956,2.022,3.966,1.851,4.643,1.716c-0.071,2.248-1.918,4.056-4.183,4.056   h-3.656h-4.944v-1.75c0.575,0.089,1.952,0.116,3.296-1.275c1.461-1.511,1.549-3.272,1.54-3.809l-0.019-0.019   c-0.541-0.022-2.339,0.026-3.857,1.491c-0.466,0.45-0.768,0.908-0.96,1.341v-9.078c0.515,0.068,1.638,0.049,2.734-1.086   c1.234-1.275,1.308-2.766,1.302-3.219l-0.017-0.016c-0.457-0.019-1.978,0.024-3.26,1.261c-0.349,0.337-0.586,0.678-0.75,1.005   c0.11-2.213,1.94-3.981,4.18-3.981c0.608,0,1.103-0.493,1.103-1.103c0-0.61-0.494-1.104-1.103-1.104   c-3.526,0-6.396,2.87-6.396,6.397v3.526c-0.151-0.366-0.399-0.755-0.796-1.138c-1.211-1.169-2.645-1.208-3.077-1.191l-0.017,0.017   c-0.005,0.427,0.065,1.832,1.229,3.038c1.095,1.133,2.218,1.09,2.66,1.014v9.678h-1.672c-1.997,0-3.669-1.404-4.088-3.276   l0.033,0.032c0.464,0.098,1.971,0.265,3.437-1.252c1.46-1.51,1.547-3.273,1.539-3.809l-0.018-0.021   c-0.543-0.021-2.34,0.028-3.857,1.493c-0.83,0.802-1.142,1.628-1.236,2.29V44.945c0.013,0.075,0.026,0.143,0.039,0.196l0.113,0.106   c0.561,0.119,2.379,0.32,4.148-1.51c1.761-1.823,1.865-3.95,1.857-4.597l-0.023-0.022c-0.653-0.027-2.822,0.033-4.654,1.801   c-0.971,0.936-1.353,1.899-1.48,2.685V35.41c0-0.609-0.494-1.103-1.104-1.103c-0.608,0-1.103,0.493-1.103,1.103v14.023   c-0.289-0.658-0.747-1.358-1.458-2.045c-2.276-2.196-4.972-2.27-5.784-2.237L11.2,45.179c-0.012,0.803,0.12,3.446,2.309,5.713   c2.027,2.096,4.105,2.045,4.962,1.909v6.041c0,1.603,0.594,3.067,1.57,4.19h-5.2c-1.91,0-3.522-1.286-4.025-3.036   c0.754,0.09,2.327,0.033,3.863-1.556c1.762-1.823,1.867-3.952,1.858-4.599l-0.023-0.022c-0.654-0.025-2.823,0.033-4.654,1.801   c-0.909,0.877-1.304,1.777-1.455,2.535c-0.202-0.252-0.509-0.416-0.856-0.416c-0.181,0-0.349,0.047-0.498,0.124   c-0.104-0.495-0.366-1.081-0.957-1.65c-1.21-1.169-2.645-1.207-3.077-1.19L5,55.04c-0.007,0.426,0.064,1.833,1.229,3.039   c0.826,0.854,1.668,1.038,2.222,1.045c0.147,3.397,2.956,6.115,6.389,6.115h10.026h1.672v0.717c0,0.212,0.011,0.423,0.031,0.63   c-1.035-0.67-2.076-0.695-2.435-0.682l-0.015,0.015c-0.006,0.429,0.063,1.834,1.229,3.039c1.062,1.101,2.15,1.091,2.617,1.021   c1.022,1.262,2.514,2.125,4.205,2.326c-0.578,0.129-1.271,0.446-1.954,1.152c-1.372,1.42-1.453,3.077-1.446,3.579l0.018,0.019   c0.508,0.021,2.197-0.027,3.624-1.4c1.433-1.385,1.227-2.848,1.121-3.288l-0.014-0.013h6.902c-0.334,0.157-0.688,0.397-1.039,0.762   c-1.158,1.199-1.228,2.597-1.222,3.021l0.016,0.015c0.43,0.018,1.854-0.021,3.06-1.185c1.055-1.018,1.057-2.089,0.981-2.591   c2.111,0.213,3.766,2,3.766,4.167v6.617c0,2.311-1.88,4.19-4.19,4.19c-0.608,0-1.102,0.492-1.102,1.103s0.493,1.103,1.102,1.103   c3.526,0,6.396-2.869,6.396-6.396v-6.617c0-0.972-0.219-1.896-0.609-2.722c2.793-0.686,4.872-3.209,4.872-6.209v-1.803   C53.04,65.839,54.061,65.708,55.064,64.671z M46.08,71.799c-1.135-1.025-2.639-1.652-4.286-1.652H41.77   c-0.004,0-0.009-0.002-0.014-0.002h-6.555c0.305-0.154,0.624-0.379,0.942-0.707c1.141-1.184,1.209-2.562,1.203-2.979l-0.014-0.015   c-0.424-0.02-1.83,0.021-3.018,1.166c-1.027,0.992-1.043,2.033-0.971,2.535h-0.41c-2.311,0-4.189-1.879-4.189-4.188v-0.717h4.944   h3.656h8.709c1.602,0,3.067-0.593,4.191-1.57v3.942C50.246,69.913,48.378,71.787,46.08,71.799z"/>
	<path d="M59.346,16.253c0.362,0.076,1.541,0.207,2.688-0.979c1.143-1.182,1.211-2.561,1.205-2.979l-0.014-0.015   c-0.425-0.017-1.832,0.021-3.019,1.167c-1.192,1.151-1.022,2.37-0.935,2.736L59.346,16.253z"/>
	<path d="M95,53.438l-0.016-0.017c-0.476-0.019-2.049,0.024-3.377,1.308c-0.195,0.188-0.355,0.379-0.49,0.567   c-0.161-0.409-0.559-0.7-1.024-0.7c-0.608,0-1.103,0.494-1.103,1.104V62.1c-0.229-0.547-0.6-1.13-1.191-1.703   c-1.816-1.752-3.97-1.812-4.617-1.785l-0.022,0.022c-0.009,0.64,0.096,2.75,1.844,4.56c1.634,1.688,3.306,1.633,3.979,1.521   c-0.104,2.221-1.936,3.997-4.18,3.997H74.611c0.369-0.216,0.75-0.506,1.131-0.896c1.646-1.705,1.744-3.694,1.736-4.299   l-0.022-0.021c-0.61-0.023-2.64,0.029-4.351,1.684c-1.399,1.352-1.498,2.768-1.418,3.532h-4.75c-2.162,0-3.944-1.646-4.168-3.749   h7.146c0.318,0,0.604-0.137,0.807-0.354c0.514-0.043,1.219-0.258,1.912-0.977c1.098-1.135,1.161-2.459,1.157-2.861l-0.017-0.014   c-0.406-0.017-1.756,0.021-2.896,1.12c-0.319,0.31-0.534,0.621-0.681,0.921c-0.092-0.023-0.186-0.043-0.284-0.043h-8.823   c-3.525,0-6.396,2.87-6.396,6.396v14.005c0,3.526,2.869,6.396,6.396,6.396c0.609,0,1.104-0.492,1.104-1.103   s-0.493-1.103-1.104-1.103c-2.31,0-4.189-1.881-4.189-4.19V76c0.377,0.034,1.092-0.021,1.793-0.746   c0.84-0.869,0.89-1.883,0.886-2.189l-0.011-0.013c-0.312-0.013-1.346,0.017-2.221,0.857c-0.195,0.19-0.34,0.383-0.447,0.569v-2.754   c0.516,0.019,1.367-0.117,2.205-0.982c1.096-1.135,1.162-2.458,1.156-2.86l-0.015-0.015c-0.407-0.016-1.758,0.021-2.896,1.121   c-0.185,0.177-0.33,0.354-0.451,0.529v-0.365c0-2.129,1.599-3.889,3.658-4.152c0.246,3.305,3.01,5.916,6.375,5.916h9.603   c-0.09,0.691-0.058,2.184,1.45,3.643c1.703,1.646,3.693,1.746,4.297,1.736l0.021-0.021c0.024-0.609-0.031-2.64-1.685-4.352   c-0.451-0.468-0.909-0.786-1.351-1.006H84.8c3.526,0,6.396-2.869,6.396-6.396v-6.6c0.607-0.005,1.541-0.199,2.457-1.148   C94.932,55.451,95.007,53.908,95,53.438z"/>
</g>
<text x="0.0" y="117.5" font-size="5.0" font-weight="bold" font-family="Helvetica Neue, Helvetica, Arial-Unicode, Arial, Sans-serif" fill="#000000">Created by Nenad Radojcic</text><text x="0.0" y="122.5" font-size="5.0" font-weight="bold" font-family="Helvetica Neue, Helvetica, Arial-Unicode, Arial, Sans-serif" fill="#000000">from the Noun Project</text></svg>